<svg width="18" height="24" viewBox="0 0 18 24" fill="none" xmlns="http://www.w3.org/2000/svg">
<path d="M12.3011 4.30025C12.3011 2.47757 10.8235 1 9.00081 1C7.17813 1 5.70056 2.47757 5.70056 4.30025V10.9008C5.70056 12.7234 7.17813 14.201 9.00081 14.201C10.8235 14.201 12.3011 12.7234 12.3011 10.9008V4.30025Z" stroke="#1D1F35" stroke-width="1.5"/>
<path d="M1.29944 9.80078V10.9009C1.29944 12.9432 2.11075 14.9019 3.55489 16.346C4.99903 17.7901 6.9577 18.6015 9.00002 18.6015M9.00002 18.6015C11.0423 18.6015 13.001 17.7901 14.4452 16.346C15.8893 14.9019 16.7006 12.9432 16.7006 10.9009V9.80078M9.00002 18.6015V23.0018M9.00002 23.0018H5.69977M9.00002 23.0018H12.3003" stroke="#1D1F35" stroke-width="1.5" stroke-linecap="round" stroke-linejoin="round"/>
</svg>
