<svg width="24" height="24" viewBox="0 0 24 24" fill="none" xmlns="http://www.w3.org/2000/svg">
<path d="M16.755 1.99979H7.245C6.086 1.99979 5.507 1.99979 5.039 2.16279C4.59778 2.31924 4.19856 2.57529 3.87234 2.91105C3.54612 3.24681 3.30168 3.65324 3.158 4.09879C3 4.58079 3 5.17679 3 6.36979V20.3738C3 21.2318 3.985 21.6878 4.608 21.1178C4.78279 20.9563 5.01202 20.8666 5.25 20.8666C5.48798 20.8666 5.71721 20.9563 5.892 21.1178L6.375 21.5598C6.68121 21.8429 7.08293 22.0002 7.5 22.0002C7.91707 22.0002 8.31879 21.8429 8.625 21.5598C8.93121 21.2766 9.33293 21.1193 9.75 21.1193C10.1671 21.1193 10.5688 21.2766 10.875 21.5598C11.1812 21.8429 11.5829 22.0002 12 22.0002C12.4171 22.0002 12.8188 21.8429 13.125 21.5598C13.4312 21.2766 13.8329 21.1193 14.25 21.1193C14.6671 21.1193 15.0688 21.2766 15.375 21.5598C15.6812 21.8429 16.0829 22.0002 16.5 22.0002C16.9171 22.0002 17.3188 21.8429 17.625 21.5598L18.108 21.1178C18.2828 20.9563 18.512 20.8666 18.75 20.8666C18.988 20.8666 19.2172 20.9563 19.392 21.1178C20.015 21.6878 21 21.2318 21 20.3738V6.36979C21 5.17679 21 4.57979 20.842 4.09979C20.6985 3.65402 20.4542 3.24735 20.1279 2.9114C19.8017 2.57545 19.4024 2.31928 18.961 2.16279C18.493 1.99979 17.914 1.99979 16.755 1.99979Z" stroke="#1D1F35" stroke-width="1.5"/>
<path d="M10.5 10.9998H17M7 10.9998H7.5M7 7.49979H7.5M7 14.4998H7.5M10.5 7.49979H17M10.5 14.4998H17" stroke="#1D1F35" stroke-width="1.5" stroke-linecap="round"/>
</svg>
