<svg width="20" height="20" viewBox="0 0 20 20" fill="none" xmlns="http://www.w3.org/2000/svg">
<path d="M15.4167 12.0825V17.0825M15.4167 17.0825L17.0833 15.4159M15.4167 17.0825L13.75 15.4159" stroke="#1D1F35" stroke-linecap="round" stroke-linejoin="round"/>
<path d="M17.9167 10.4167C17.9167 7.27417 17.9167 5.7025 16.94 4.72667C15.9642 3.75 14.3925 3.75 11.25 3.75H7.91667C4.77417 3.75 3.2025 3.75 2.22667 4.72667C1.25 5.7025 1.25 7.27417 1.25 10.4167C1.25 13.5592 1.25 15.1308 2.22667 16.1067C3.2025 17.0833 4.77417 17.0833 7.91667 17.0833H11.25M7.91667 13.75H4.58333M10.4167 13.75H10M1.25 8.75H17.9167" stroke="#1D1F35" stroke-linecap="round"/>
</svg>
