<svg width="24" height="24" viewBox="0 0 24 24" fill="none" xmlns="http://www.w3.org/2000/svg">
<path d="M15.1992 10.2895L19.3 1M9.7476 10.4952L5 1M13.5382 9.8528L9.2185 1M15.296 1L14.152 3.75M6.1 16.4C6.1 18.1504 6.79536 19.8292 8.0331 21.0669C9.27084 22.3046 10.9496 23 12.7 23C14.4504 23 16.1292 22.3046 17.3669 21.0669C18.6046 19.8292 19.3 18.1504 19.3 16.4C19.3 14.6496 18.6046 12.9708 17.3669 11.7331C16.1292 10.4954 14.4504 9.8 12.7 9.8C10.9496 9.8 9.27084 10.4954 8.0331 11.7331C6.79536 12.9708 6.1 14.6496 6.1 16.4Z" stroke="#1D1F35" stroke-width="1.5" stroke-linecap="round" stroke-linejoin="round"/>
</svg>
