<svg width="24" height="24" viewBox="0 0 24 24" fill="none" xmlns="http://www.w3.org/2000/svg">
<path d="M15.71 6.28985L10.41 11.5898L8.29 9.46985C8.20035 9.36517 8.09003 9.28014 7.96597 9.22012C7.84191 9.1601 7.70677 9.12637 7.56905 9.12105C7.43133 9.11573 7.294 9.13894 7.16568 9.18921C7.03735 9.23948 6.9208 9.31574 6.82335 9.4132C6.72589 9.51065 6.64964 9.6272 6.59936 9.75552C6.54909 9.88385 6.52588 10.0212 6.5312 10.1589C6.53652 10.2966 6.57025 10.4318 6.63027 10.5558C6.6903 10.6799 6.77532 10.7902 6.88 10.8798L9.71 13.7098C9.89626 13.8946 10.1477 13.9987 10.41 13.9998C10.5416 14.0006 10.6721 13.9754 10.7939 13.9256C10.9157 13.8759 11.0266 13.8025 11.12 13.7098L17.12 7.70985C17.2137 7.61688 17.2881 7.50628 17.3389 7.38442C17.3897 7.26257 17.4158 7.13186 17.4158 6.99985C17.4158 6.86784 17.3897 6.73713 17.3389 6.61527C17.2881 6.49341 17.2137 6.38281 17.12 6.28985C16.9326 6.1036 16.6792 5.99905 16.415 5.99905C16.1508 5.99905 15.8974 6.1036 15.71 6.28985ZM19 1.99985H5C4.20435 1.99985 3.44129 2.31592 2.87868 2.87853C2.31607 3.44114 2 4.2042 2 4.99985V14.9998C2 15.7955 2.31607 16.5586 2.87868 17.1212C3.44129 17.6838 4.20435 17.9998 5 17.9998H16.59L20.29 21.7098C20.3834 21.8025 20.4943 21.8759 20.6161 21.9256C20.7379 21.9754 20.8684 22.0006 21 21.9998C21.1312 22.0032 21.2613 21.9758 21.38 21.9198C21.5626 21.8448 21.7189 21.7174 21.8293 21.5537C21.9396 21.39 21.999 21.1973 22 20.9998V4.99985C22 4.2042 21.6839 3.44114 21.1213 2.87853C20.5587 2.31592 19.7956 1.99985 19 1.99985ZM20 18.5898L17.71 16.2898C17.6166 16.1972 17.5057 16.1238 17.3839 16.0741C17.2621 16.0243 17.1316 15.9991 17 15.9998H5C4.73478 15.9998 4.48043 15.8945 4.29289 15.707C4.10536 15.5194 4 15.2651 4 14.9998V4.99985C4 4.73463 4.10536 4.48028 4.29289 4.29274C4.48043 4.1052 4.73478 3.99985 5 3.99985H19C19.2652 3.99985 19.5196 4.1052 19.7071 4.29274C19.8946 4.48028 20 4.73463 20 4.99985V18.5898Z" fill="#1D1F35"/>
</svg>
