<svg width="24" height="24" viewBox="0 0 24 24" fill="none" xmlns="http://www.w3.org/2000/svg">
<path d="M12 6.68681V19M12 6.68681C12 6.68681 9.8 4.01003 6.5 4.01003C4.81563 3.89092 2.54885 4.86213 1.53221 5.34896C1.20095 5.50759 1 5.84498 1 6.21227V16.4845C1 17.1832 1.70207 17.6771 2.37298 17.482C3.53608 17.1438 5.2147 16.7539 6.5 16.8586C8.80529 17.0462 12 19 12 19M12 6.68681C12 6.68681 14.2 4.01003 17.5 4.01003C19.1844 3.89092 21.4512 4.86213 22.4678 5.34896C22.7991 5.50759 23 5.84498 23 6.21227V16.4845C23 17.1832 22.2979 17.6771 21.627 17.482C20.4639 17.1438 18.7853 16.7539 17.5 16.8586C15.1947 17.0462 12 19 12 19" stroke="#1D1F35" stroke-width="1.5" stroke-linecap="round"/>
<path d="M14 15C14 15 15.75 14 17.5 14C19.25 14 21 14.5 21 14.5" stroke="#1D1F35" stroke-width="1.5" stroke-linecap="round"/>
<path d="M14 12C14 12 15.75 11 17.5 11C19.25 11 21 11.5 21 11.5" stroke="#1D1F35" stroke-width="1.5" stroke-linecap="round"/>
<path d="M14 9C14 9 15.75 8 17.5 8C19.25 8 21 8.5 21 8.5" stroke="#1D1F35" stroke-width="1.5" stroke-linecap="round"/>
</svg>
