<svg width="24" height="24" viewBox="0 0 24 24" fill="none" xmlns="http://www.w3.org/2000/svg">
<circle cx="12" cy="12" r="10.25" stroke="#1D1F35" stroke-width="1.5"/>
<path d="M9 12.5L9.53033 11.9697L9 11.4393L8.46967 11.9697L9 12.5ZM11.5 15L10.9697 15.5303L11.5 16.0607L12.0303 15.5303L11.5 15ZM18.25 9C18.25 8.58579 17.9142 8.25 17.5 8.25H10.75C10.3358 8.25 10 8.58579 10 9C10 9.41421 10.3358 9.75 10.75 9.75H16.75V15.75C16.75 16.1642 17.0858 16.5 17.5 16.5C17.9142 16.5 18.25 16.1642 18.25 15.75V9ZM4.53033 18.0303L9.53033 13.0303L8.46967 11.9697L3.46967 16.9697L4.53033 18.0303ZM8.46967 13.0303L10.9697 15.5303L12.0303 14.4697L9.53033 11.9697L8.46967 13.0303ZM12.0303 15.5303L18.0303 9.53033L16.9697 8.46967L10.9697 14.4697L12.0303 15.5303Z" fill="#1D1F35"/>
</svg>
