<svg width="704" height="239" viewBox="0 0 704 239" fill="none" xmlns="http://www.w3.org/2000/svg">
<path d="M36 20L704 20.0001" stroke="#676767" stroke-dasharray="7 7"/>
<path d="M36 54L704 54.0001" stroke="#676767" stroke-dasharray="7 7"/>
<path d="M36 91L704 91.0001" stroke="#676767" stroke-dasharray="7 7"/>
<path d="M36 127L704 127" stroke="#676767" stroke-dasharray="7 7"/>
<path d="M36 164L704 164" stroke="#676767" stroke-dasharray="7 7"/>
<path d="M36 201L704 201" stroke="#3BD1F2" stroke-opacity="0.3"/>
<path d="M2.70746 22.87V22.1C2.05413 22.0267 1.53746 21.7933 1.15746 21.4C0.777461 21.0067 0.587461 20.5067 0.587461 19.9H1.46746C1.46746 20.2533 1.57079 20.57 1.77746 20.85C1.99079 21.1233 2.30079 21.3 2.70746 21.38V18.67C2.66079 18.6567 2.61079 18.6433 2.55746 18.63C2.51079 18.61 2.46413 18.5933 2.41746 18.58C1.87746 18.3933 1.47746 18.1633 1.21746 17.89C0.957461 17.61 0.827461 17.2467 0.827461 16.8C0.820794 16.28 0.984128 15.8467 1.31746 15.5C1.65746 15.1533 2.12079 14.9533 2.70746 14.9V14.09H3.39746V14.9C3.95746 14.9667 4.40413 15.1767 4.73746 15.53C5.07079 15.8833 5.24079 16.3133 5.24746 16.82H4.36746C4.36746 16.5733 4.28746 16.3367 4.12746 16.11C3.96746 15.8767 3.72413 15.72 3.39746 15.64V18.06C3.45079 18.0733 3.50413 18.09 3.55746 18.11C3.61079 18.13 3.66746 18.1467 3.72746 18.16C4.06079 18.28 4.36079 18.42 4.62746 18.58C4.89413 18.74 5.10079 18.9467 5.24746 19.2C5.40079 19.4533 5.47746 19.7767 5.47746 20.17C5.47746 20.4833 5.40079 20.78 5.24746 21.06C5.09413 21.34 4.86079 21.5767 4.54746 21.77C4.24079 21.9633 3.85746 22.0767 3.39746 22.11V22.87H2.70746ZM1.69746 16.72C1.69746 17.0267 1.78746 17.26 1.96746 17.42C2.14746 17.5733 2.39413 17.7067 2.70746 17.82V15.62C2.40746 15.6667 2.16413 15.7867 1.97746 15.98C1.79079 16.1667 1.69746 16.4133 1.69746 16.72ZM4.60746 20.22C4.60746 19.8333 4.49413 19.5467 4.26746 19.36C4.04079 19.1733 3.75079 19.02 3.39746 18.9V21.4C3.78413 21.3533 4.08079 21.22 4.28746 21C4.50079 20.78 4.60746 20.52 4.60746 20.22ZM7.35871 22V15.94L6.22871 16.19V15.61L7.63871 15H8.20871V22H7.35871ZM12.4163 22.12C11.7963 22.12 11.2596 21.97 10.8063 21.67C10.3596 21.3633 10.0163 20.94 9.77629 20.4C9.53629 19.8533 9.41629 19.22 9.41629 18.5C9.41629 17.78 9.53629 17.15 9.77629 16.61C10.0163 16.0633 10.3596 15.64 10.8063 15.34C11.2596 15.0333 11.7963 14.88 12.4163 14.88C13.0363 14.88 13.5696 15.0333 14.0163 15.34C14.463 15.64 14.8063 16.0633 15.0463 16.61C15.2863 17.15 15.4063 17.78 15.4063 18.5C15.4063 19.22 15.2863 19.8533 15.0463 20.4C14.8063 20.94 14.463 21.3633 14.0163 21.67C13.5696 21.97 13.0363 22.12 12.4163 22.12ZM12.4163 21.38C12.823 21.38 13.1863 21.2667 13.5063 21.04C13.833 20.8067 14.0863 20.4767 14.2663 20.05C14.453 19.6167 14.5463 19.1 14.5463 18.5C14.5463 17.9 14.453 17.3867 14.2663 16.96C14.0863 16.5333 13.833 16.2067 13.5063 15.98C13.1863 15.7467 12.823 15.63 12.4163 15.63C12.003 15.63 11.6363 15.7467 11.3163 15.98C10.9963 16.2067 10.743 16.5333 10.5563 16.96C10.3696 17.3867 10.2763 17.9 10.2763 18.5C10.2763 19.1 10.3696 19.6167 10.5563 20.05C10.743 20.4767 10.9963 20.8067 11.3163 21.04C11.6363 21.2667 12.003 21.38 12.4163 21.38ZM19.3499 22.12C18.7299 22.12 18.1932 21.97 17.7399 21.67C17.2932 21.3633 16.9499 20.94 16.7099 20.4C16.4699 19.8533 16.3499 19.22 16.3499 18.5C16.3499 17.78 16.4699 17.15 16.7099 16.61C16.9499 16.0633 17.2932 15.64 17.7399 15.34C18.1932 15.0333 18.7299 14.88 19.3499 14.88C19.9699 14.88 20.5032 15.0333 20.9499 15.34C21.3965 15.64 21.7399 16.0633 21.9799 16.61C22.2199 17.15 22.3399 17.78 22.3399 18.5C22.3399 19.22 22.2199 19.8533 21.9799 20.4C21.7399 20.94 21.3965 21.3633 20.9499 21.67C20.5032 21.97 19.9699 22.12 19.3499 22.12ZM19.3499 21.38C19.7565 21.38 20.1199 21.2667 20.4399 21.04C20.7665 20.8067 21.0199 20.4767 21.1999 20.05C21.3865 19.6167 21.4799 19.1 21.4799 18.5C21.4799 17.9 21.3865 17.3867 21.1999 16.96C21.0199 16.5333 20.7665 16.2067 20.4399 15.98C20.1199 15.7467 19.7565 15.63 19.3499 15.63C18.9365 15.63 18.5699 15.7467 18.2499 15.98C17.9299 16.2067 17.6765 16.5333 17.4899 16.96C17.3032 17.3867 17.2099 17.9 17.2099 18.5C17.2099 19.1 17.3032 19.6167 17.4899 20.05C17.6765 20.4767 17.9299 20.8067 18.2499 21.04C18.5699 21.2667 18.9365 21.38 19.3499 21.38ZM23.5035 22V14.8H24.3435V19.13L26.3735 17.04H27.4035L25.2035 19.28L27.6835 22H26.6135L24.3435 19.43V22H23.5035Z" fill="#74BBCB"/>
<path d="M6.63129 58.87V58.1C5.97796 58.0267 5.46129 57.7933 5.08129 57.4C4.70129 57.0067 4.51129 56.5067 4.51129 55.9H5.39129C5.39129 56.2533 5.49462 56.57 5.70129 56.85C5.91462 57.1233 6.22462 57.3 6.63129 57.38V54.67C6.58462 54.6567 6.53462 54.6433 6.48129 54.63C6.43462 54.61 6.38796 54.5933 6.34129 54.58C5.80129 54.3933 5.40129 54.1633 5.14129 53.89C4.88129 53.61 4.75129 53.2467 4.75129 52.8C4.74462 52.28 4.90796 51.8467 5.24129 51.5C5.58129 51.1533 6.04462 50.9533 6.63129 50.9V50.09H7.32129V50.9C7.88129 50.9667 8.32796 51.1767 8.66129 51.53C8.99462 51.8833 9.16462 52.3133 9.17129 52.82H8.29129C8.29129 52.5733 8.21129 52.3367 8.05129 52.11C7.89129 51.8767 7.64796 51.72 7.32129 51.64V54.06C7.37462 54.0733 7.42796 54.09 7.48129 54.11C7.53462 54.13 7.59129 54.1467 7.65129 54.16C7.98462 54.28 8.28462 54.42 8.55129 54.58C8.81796 54.74 9.02462 54.9467 9.17129 55.2C9.32462 55.4533 9.40129 55.7767 9.40129 56.17C9.40129 56.4833 9.32462 56.78 9.17129 57.06C9.01796 57.34 8.78462 57.5767 8.47129 57.77C8.16462 57.9633 7.78129 58.0767 7.32129 58.11V58.87H6.63129ZM5.62129 52.72C5.62129 53.0267 5.71129 53.26 5.89129 53.42C6.07129 53.5733 6.31796 53.7067 6.63129 53.82V51.62C6.33129 51.6667 6.08796 51.7867 5.90129 51.98C5.71462 52.1667 5.62129 52.4133 5.62129 52.72ZM8.53129 56.22C8.53129 55.8333 8.41796 55.5467 8.19129 55.36C7.96462 55.1733 7.67462 55.02 7.32129 54.9V57.4C7.70796 57.3533 8.00462 57.22 8.21129 57C8.42462 56.78 8.53129 56.52 8.53129 56.22ZM12.9025 58.12C12.4425 58.12 12.0292 58.0367 11.6625 57.87C11.2959 57.6967 11.0059 57.46 10.7925 57.16C10.5859 56.8533 10.4825 56.5 10.4825 56.1C10.4825 55.6733 10.6059 55.29 10.8525 54.95C11.1059 54.61 11.4392 54.3833 11.8525 54.27C11.4725 54.1433 11.1792 53.94 10.9725 53.66C10.7659 53.38 10.6625 53.0733 10.6625 52.74C10.6625 52.4 10.7525 52.09 10.9325 51.81C11.1125 51.5233 11.3692 51.2967 11.7025 51.13C12.0359 50.9633 12.4359 50.88 12.9025 50.88C13.3692 50.88 13.7692 50.9633 14.1025 51.13C14.4359 51.2967 14.6925 51.5233 14.8725 51.81C15.0525 52.09 15.1425 52.4 15.1425 52.74C15.1425 53.0667 15.0392 53.3733 14.8325 53.66C14.6259 53.94 14.3325 54.1433 13.9525 54.27C14.3659 54.3833 14.6959 54.61 14.9425 54.95C15.1959 55.29 15.3225 55.6733 15.3225 56.1C15.3225 56.5 15.2159 56.8533 15.0025 57.16C14.7959 57.46 14.5092 57.6967 14.1425 57.87C13.7759 58.0367 13.3625 58.12 12.9025 58.12ZM12.9025 53.97C13.3292 53.97 13.6659 53.8633 13.9125 53.65C14.1659 53.43 14.2925 53.1433 14.2925 52.79C14.2925 52.3967 14.1692 52.1 13.9225 51.9C13.6759 51.7 13.3359 51.6 12.9025 51.6C12.4692 51.6 12.1292 51.7 11.8825 51.9C11.6425 52.1 11.5225 52.3967 11.5225 52.79C11.5225 53.1433 11.6459 53.43 11.8925 53.65C12.1392 53.8633 12.4759 53.97 12.9025 53.97ZM12.9025 57.38C13.4292 57.38 13.8225 57.26 14.0825 57.02C14.3492 56.7733 14.4825 56.45 14.4825 56.05C14.4825 55.5967 14.3392 55.2533 14.0525 55.02C13.7659 54.7867 13.3825 54.67 12.9025 54.67C12.4225 54.67 12.0392 54.7867 11.7525 55.02C11.4659 55.2533 11.3225 55.5967 11.3225 56.05C11.3225 56.45 11.4525 56.7733 11.7125 57.02C11.9792 57.26 12.3759 57.38 12.9025 57.38ZM19.4261 58.12C18.8061 58.12 18.2694 57.97 17.8161 57.67C17.3694 57.3633 17.0261 56.94 16.7861 56.4C16.5461 55.8533 16.4261 55.22 16.4261 54.5C16.4261 53.78 16.5461 53.15 16.7861 52.61C17.0261 52.0633 17.3694 51.64 17.8161 51.34C18.2694 51.0333 18.8061 50.88 19.4261 50.88C20.0461 50.88 20.5794 51.0333 21.0261 51.34C21.4727 51.64 21.8161 52.0633 22.0561 52.61C22.2961 53.15 22.4161 53.78 22.4161 54.5C22.4161 55.22 22.2961 55.8533 22.0561 56.4C21.8161 56.94 21.4727 57.3633 21.0261 57.67C20.5794 57.97 20.0461 58.12 19.4261 58.12ZM19.4261 57.38C19.8327 57.38 20.1961 57.2667 20.5161 57.04C20.8427 56.8067 21.0961 56.4767 21.2761 56.05C21.4627 55.6167 21.5561 55.1 21.5561 54.5C21.5561 53.9 21.4627 53.3867 21.2761 52.96C21.0961 52.5333 20.8427 52.2067 20.5161 51.98C20.1961 51.7467 19.8327 51.63 19.4261 51.63C19.0127 51.63 18.6461 51.7467 18.3261 51.98C18.0061 52.2067 17.7527 52.5333 17.5661 52.96C17.3794 53.3867 17.2861 53.9 17.2861 54.5C17.2861 55.1 17.3794 55.6167 17.5661 56.05C17.7527 56.4767 18.0061 56.8067 18.3261 57.04C18.6461 57.2667 19.0127 57.38 19.4261 57.38ZM23.5796 58V50.8H24.4196V55.13L26.4496 53.04H27.4796L25.2796 55.28L27.7596 58H26.6896L24.4196 55.43V58H23.5796Z" fill="#74BBCB"/>
<path d="M6.6557 94.87V94.1C6.00237 94.0267 5.4857 93.7933 5.1057 93.4C4.7257 93.0067 4.5357 92.5067 4.5357 91.9H5.4157C5.4157 92.2533 5.51904 92.57 5.7257 92.85C5.93904 93.1233 6.24904 93.3 6.6557 93.38V90.67C6.60904 90.6567 6.55904 90.6433 6.5057 90.63C6.45904 90.61 6.41237 90.5933 6.3657 90.58C5.8257 90.3933 5.4257 90.1633 5.1657 89.89C4.9057 89.61 4.7757 89.2467 4.7757 88.8C4.76904 88.28 4.93237 87.8467 5.2657 87.5C5.6057 87.1533 6.06904 86.9533 6.6557 86.9V86.09H7.3457V86.9C7.9057 86.9667 8.35237 87.1767 8.6857 87.53C9.01904 87.8833 9.18904 88.3133 9.1957 88.82H8.3157C8.3157 88.5733 8.2357 88.3367 8.0757 88.11C7.9157 87.8767 7.67237 87.72 7.3457 87.64V90.06C7.39904 90.0733 7.45237 90.09 7.5057 90.11C7.55904 90.13 7.6157 90.1467 7.6757 90.16C8.00904 90.28 8.30904 90.42 8.5757 90.58C8.84237 90.74 9.04904 90.9467 9.1957 91.2C9.34904 91.4533 9.4257 91.7767 9.4257 92.17C9.4257 92.4833 9.34904 92.78 9.1957 93.06C9.04237 93.34 8.80904 93.5767 8.4957 93.77C8.18904 93.9633 7.8057 94.0767 7.3457 94.11V94.87H6.6557ZM5.6457 88.72C5.6457 89.0267 5.7357 89.26 5.9157 89.42C6.0957 89.5733 6.34237 89.7067 6.6557 89.82V87.62C6.3557 87.6667 6.11237 87.7867 5.9257 87.98C5.73904 88.1667 5.6457 88.4133 5.6457 88.72ZM8.5557 92.22C8.5557 91.8333 8.44237 91.5467 8.2157 91.36C7.98904 91.1733 7.69904 91.02 7.3457 90.9V93.4C7.73237 93.3533 8.02904 93.22 8.2357 93C8.44904 92.78 8.5557 92.52 8.5557 92.22ZM13.787 94V92.5H10.237V91.85L13.637 87H14.617V91.76H15.657V92.5H14.617V94H13.787ZM11.167 91.76H13.827V87.93L11.167 91.76ZM19.4016 94.12C18.7816 94.12 18.245 93.97 17.7916 93.67C17.345 93.3633 17.0016 92.94 16.7616 92.4C16.5216 91.8533 16.4016 91.22 16.4016 90.5C16.4016 89.78 16.5216 89.15 16.7616 88.61C17.0016 88.0633 17.345 87.64 17.7916 87.34C18.245 87.0333 18.7816 86.88 19.4016 86.88C20.0216 86.88 20.555 87.0333 21.0016 87.34C21.4483 87.64 21.7916 88.0633 22.0316 88.61C22.2716 89.15 22.3916 89.78 22.3916 90.5C22.3916 91.22 22.2716 91.8533 22.0316 92.4C21.7916 92.94 21.4483 93.3633 21.0016 93.67C20.555 93.97 20.0216 94.12 19.4016 94.12ZM19.4016 93.38C19.8083 93.38 20.1716 93.2667 20.4916 93.04C20.8183 92.8067 21.0716 92.4767 21.2516 92.05C21.4383 91.6167 21.5316 91.1 21.5316 90.5C21.5316 89.9 21.4383 89.3867 21.2516 88.96C21.0716 88.5333 20.8183 88.2067 20.4916 87.98C20.1716 87.7467 19.8083 87.63 19.4016 87.63C18.9883 87.63 18.6216 87.7467 18.3016 87.98C17.9816 88.2067 17.7283 88.5333 17.5416 88.96C17.355 89.3867 17.2616 89.9 17.2616 90.5C17.2616 91.1 17.355 91.6167 17.5416 92.05C17.7283 92.4767 17.9816 92.8067 18.3016 93.04C18.6216 93.2667 18.9883 93.38 19.4016 93.38ZM23.5552 94V86.8H24.3952V91.13L26.4252 89.04H27.4552L25.2552 91.28L27.7352 94H26.6652L24.3952 91.43V94H23.5552Z" fill="#74BBCB"/>
<path d="M6.87055 130.87V130.1C6.21721 130.027 5.70055 129.793 5.32055 129.4C4.94055 129.007 4.75055 128.507 4.75055 127.9H5.63055C5.63055 128.253 5.73388 128.57 5.94055 128.85C6.15388 129.123 6.46388 129.3 6.87055 129.38V126.67C6.82388 126.657 6.77388 126.643 6.72055 126.63C6.67388 126.61 6.62721 126.593 6.58055 126.58C6.04055 126.393 5.64055 126.163 5.38055 125.89C5.12055 125.61 4.99055 125.247 4.99055 124.8C4.98388 124.28 5.14721 123.847 5.48055 123.5C5.82055 123.153 6.28388 122.953 6.87055 122.9V122.09H7.56055V122.9C8.12055 122.967 8.56721 123.177 8.90055 123.53C9.23388 123.883 9.40388 124.313 9.41055 124.82H8.53055C8.53055 124.573 8.45055 124.337 8.29055 124.11C8.13055 123.877 7.88721 123.72 7.56055 123.64V126.06C7.61388 126.073 7.66721 126.09 7.72055 126.11C7.77388 126.13 7.83055 126.147 7.89055 126.16C8.22388 126.28 8.52388 126.42 8.79055 126.58C9.05721 126.74 9.26388 126.947 9.41055 127.2C9.56388 127.453 9.64055 127.777 9.64055 128.17C9.64055 128.483 9.56388 128.78 9.41055 129.06C9.25721 129.34 9.02388 129.577 8.71055 129.77C8.40388 129.963 8.02055 130.077 7.56055 130.11V130.87H6.87055ZM5.86055 124.72C5.86055 125.027 5.95055 125.26 6.13055 125.42C6.31055 125.573 6.55721 125.707 6.87055 125.82V123.62C6.57055 123.667 6.32721 123.787 6.14055 123.98C5.95388 124.167 5.86055 124.413 5.86055 124.72ZM8.77055 128.22C8.77055 127.833 8.65721 127.547 8.43055 127.36C8.20388 127.173 7.91388 127.02 7.56055 126.9V129.4C7.94721 129.353 8.24388 129.22 8.45055 129C8.66388 128.78 8.77055 128.52 8.77055 128.22ZM10.7218 130V129.41C11.1951 129.037 11.6418 128.66 12.0618 128.28C12.4885 127.893 12.8651 127.513 13.1918 127.14C13.5251 126.767 13.7851 126.4 13.9718 126.04C14.1651 125.68 14.2618 125.333 14.2618 125C14.2618 124.753 14.2185 124.523 14.1318 124.31C14.0518 124.097 13.9185 123.927 13.7318 123.8C13.5451 123.667 13.2918 123.6 12.9718 123.6C12.6651 123.6 12.4085 123.67 12.2018 123.81C11.9951 123.943 11.8385 124.123 11.7318 124.35C11.6318 124.577 11.5818 124.82 11.5818 125.08H10.7718C10.7718 124.62 10.8685 124.227 11.0618 123.9C11.2551 123.567 11.5185 123.313 11.8518 123.14C12.1851 122.967 12.5618 122.88 12.9818 122.88C13.6018 122.88 14.1085 123.057 14.5018 123.41C14.9018 123.757 15.1018 124.277 15.1018 124.97C15.1018 125.383 14.9985 125.793 14.7918 126.2C14.5851 126.6 14.3218 126.99 14.0018 127.37C13.6818 127.743 13.3385 128.093 12.9718 128.42C12.6118 128.747 12.2751 129.04 11.9618 129.3H15.3418V130H10.7218ZM19.1868 130.12C18.5668 130.12 18.0301 129.97 17.5768 129.67C17.1301 129.363 16.7868 128.94 16.5468 128.4C16.3068 127.853 16.1868 127.22 16.1868 126.5C16.1868 125.78 16.3068 125.15 16.5468 124.61C16.7868 124.063 17.1301 123.64 17.5768 123.34C18.0301 123.033 18.5668 122.88 19.1868 122.88C19.8068 122.88 20.3401 123.033 20.7868 123.34C21.2335 123.64 21.5768 124.063 21.8168 124.61C22.0568 125.15 22.1768 125.78 22.1768 126.5C22.1768 127.22 22.0568 127.853 21.8168 128.4C21.5768 128.94 21.2335 129.363 20.7868 129.67C20.3401 129.97 19.8068 130.12 19.1868 130.12ZM19.1868 129.38C19.5935 129.38 19.9568 129.267 20.2768 129.04C20.6035 128.807 20.8568 128.477 21.0368 128.05C21.2235 127.617 21.3168 127.1 21.3168 126.5C21.3168 125.9 21.2235 125.387 21.0368 124.96C20.8568 124.533 20.6035 124.207 20.2768 123.98C19.9568 123.747 19.5935 123.63 19.1868 123.63C18.7735 123.63 18.4068 123.747 18.0868 123.98C17.7668 124.207 17.5135 124.533 17.3268 124.96C17.1401 125.387 17.0468 125.9 17.0468 126.5C17.0468 127.1 17.1401 127.617 17.3268 128.05C17.5135 128.477 17.7668 128.807 18.0868 129.04C18.4068 129.267 18.7735 129.38 19.1868 129.38ZM23.3404 130V122.8H24.1804V127.13L26.2104 125.04H27.2404L25.0404 127.28L27.5204 130H26.4504L24.1804 127.43V130H23.3404Z" fill="#74BBCB"/>
<path d="M9.67426 166.87V166.1C9.02092 166.027 8.50426 165.793 8.12426 165.4C7.74426 165.007 7.55426 164.507 7.55426 163.9H8.43426C8.43426 164.253 8.53759 164.57 8.74426 164.85C8.95759 165.123 9.26759 165.3 9.67426 165.38V162.67C9.62759 162.657 9.57759 162.643 9.52426 162.63C9.47759 162.61 9.43092 162.593 9.38426 162.58C8.84426 162.393 8.44426 162.163 8.18426 161.89C7.92426 161.61 7.79426 161.247 7.79426 160.8C7.78759 160.28 7.95092 159.847 8.28426 159.5C8.62426 159.153 9.08759 158.953 9.67426 158.9V158.09H10.3643V158.9C10.9243 158.967 11.3709 159.177 11.7043 159.53C12.0376 159.883 12.2076 160.313 12.2143 160.82H11.3343C11.3343 160.573 11.2543 160.337 11.0943 160.11C10.9343 159.877 10.6909 159.72 10.3643 159.64V162.06C10.4176 162.073 10.4709 162.09 10.5243 162.11C10.5776 162.13 10.6343 162.147 10.6943 162.16C11.0276 162.28 11.3276 162.42 11.5943 162.58C11.8609 162.74 12.0676 162.947 12.2143 163.2C12.3676 163.453 12.4443 163.777 12.4443 164.17C12.4443 164.483 12.3676 164.78 12.2143 165.06C12.0609 165.34 11.8276 165.577 11.5143 165.77C11.2076 165.963 10.8243 166.077 10.3643 166.11V166.87H9.67426ZM8.66426 160.72C8.66426 161.027 8.75426 161.26 8.93426 161.42C9.11426 161.573 9.36092 161.707 9.67426 161.82V159.62C9.37426 159.667 9.13092 159.787 8.94426 159.98C8.75759 160.167 8.66426 160.413 8.66426 160.72ZM11.5743 164.22C11.5743 163.833 11.4609 163.547 11.2343 163.36C11.0076 163.173 10.7176 163.02 10.3643 162.9V165.4C10.7509 165.353 11.0476 165.22 11.2543 165C11.4676 164.78 11.5743 164.52 11.5743 164.22ZM14.3255 166V159.94L13.1955 160.19V159.61L14.6055 159H15.1755V166H14.3255ZM19.3831 166.12C18.7631 166.12 18.2264 165.97 17.7731 165.67C17.3264 165.363 16.9831 164.94 16.7431 164.4C16.5031 163.853 16.3831 163.22 16.3831 162.5C16.3831 161.78 16.5031 161.15 16.7431 160.61C16.9831 160.063 17.3264 159.64 17.7731 159.34C18.2264 159.033 18.7631 158.88 19.3831 158.88C20.0031 158.88 20.5364 159.033 20.9831 159.34C21.4298 159.64 21.7731 160.063 22.0131 160.61C22.2531 161.15 22.3731 161.78 22.3731 162.5C22.3731 163.22 22.2531 163.853 22.0131 164.4C21.7731 164.94 21.4298 165.363 20.9831 165.67C20.5364 165.97 20.0031 166.12 19.3831 166.12ZM19.3831 165.38C19.7898 165.38 20.1531 165.267 20.4731 165.04C20.7998 164.807 21.0531 164.477 21.2331 164.05C21.4198 163.617 21.5131 163.1 21.5131 162.5C21.5131 161.9 21.4198 161.387 21.2331 160.96C21.0531 160.533 20.7998 160.207 20.4731 159.98C20.1531 159.747 19.7898 159.63 19.3831 159.63C18.9698 159.63 18.6031 159.747 18.2831 159.98C17.9631 160.207 17.7098 160.533 17.5231 160.96C17.3364 161.387 17.2431 161.9 17.2431 162.5C17.2431 163.1 17.3364 163.617 17.5231 164.05C17.7098 164.477 17.9631 164.807 18.2831 165.04C18.6031 165.267 18.9698 165.38 19.3831 165.38ZM23.5367 166V158.8H24.3767V163.13L26.4067 161.04H27.4367L25.2367 163.28L27.7167 166H26.6467L24.3767 163.43V166H23.5367Z" fill="#74BBCB"/>
<path d="M24.5032 204.12C23.8832 204.12 23.3465 203.97 22.8932 203.67C22.4465 203.363 22.1032 202.94 21.8632 202.4C21.6232 201.853 21.5032 201.22 21.5032 200.5C21.5032 199.78 21.6232 199.15 21.8632 198.61C22.1032 198.063 22.4465 197.64 22.8932 197.34C23.3465 197.033 23.8832 196.88 24.5032 196.88C25.1232 196.88 25.6565 197.033 26.1032 197.34C26.5499 197.64 26.8932 198.063 27.1332 198.61C27.3732 199.15 27.4932 199.78 27.4932 200.5C27.4932 201.22 27.3732 201.853 27.1332 202.4C26.8932 202.94 26.5499 203.363 26.1032 203.67C25.6565 203.97 25.1232 204.12 24.5032 204.12ZM24.5032 203.38C24.9099 203.38 25.2732 203.267 25.5932 203.04C25.9199 202.807 26.1732 202.477 26.3532 202.05C26.5399 201.617 26.6332 201.1 26.6332 200.5C26.6332 199.9 26.5399 199.387 26.3532 198.96C26.1732 198.533 25.9199 198.207 25.5932 197.98C25.2732 197.747 24.9099 197.63 24.5032 197.63C24.0899 197.63 23.7232 197.747 23.4032 197.98C23.0832 198.207 22.8299 198.533 22.6432 198.96C22.4565 199.387 22.3632 199.9 22.3632 200.5C22.3632 201.1 22.4565 201.617 22.6432 202.05C22.8299 202.477 23.0832 202.807 23.4032 203.04C23.7232 203.267 24.0899 203.38 24.5032 203.38Z" fill="#74BBCB"/>
<path d="M61.2385 236.12C60.6051 236.12 60.1085 235.943 59.7485 235.59C59.3885 235.237 59.2085 234.747 59.2085 234.12H60.0585C60.0585 234.473 60.1451 234.77 60.3185 235.01C60.4918 235.25 60.7951 235.37 61.2285 235.37C61.6485 235.37 61.9385 235.253 62.0985 235.02C62.2651 234.787 62.3485 234.497 62.3485 234.15V229H63.1885V234.15C63.1885 234.77 63.0151 235.253 62.6685 235.6C62.3285 235.947 61.8518 236.12 61.2385 236.12ZM66.2687 236.12C65.8554 236.12 65.512 236.05 65.2387 235.91C64.9654 235.77 64.762 235.583 64.6287 235.35C64.4954 235.117 64.4287 234.863 64.4287 234.59C64.4287 234.083 64.622 233.693 65.0087 233.42C65.3954 233.147 65.922 233.01 66.5887 233.01H67.9287V232.95C67.9287 232.517 67.8154 232.19 67.5887 231.97C67.362 231.743 67.0587 231.63 66.6787 231.63C66.352 231.63 66.0687 231.713 65.8287 231.88C65.5954 232.04 65.4487 232.277 65.3887 232.59H64.5287C64.562 232.23 64.682 231.927 64.8887 231.68C65.102 231.433 65.3654 231.247 65.6787 231.12C65.992 230.987 66.3254 230.92 66.6787 230.92C67.372 230.92 67.892 231.107 68.2387 231.48C68.592 231.847 68.7687 232.337 68.7687 232.95V236H68.0187L67.9687 235.11C67.8287 235.39 67.622 235.63 67.3487 235.83C67.082 236.023 66.722 236.12 66.2687 236.12ZM66.3987 235.41C66.7187 235.41 66.992 235.327 67.2187 235.16C67.452 234.993 67.6287 234.777 67.7487 234.51C67.8687 234.243 67.9287 233.963 67.9287 233.67V233.66H66.6587C66.1654 233.66 65.8154 233.747 65.6087 233.92C65.4087 234.087 65.3087 234.297 65.3087 234.55C65.3087 234.81 65.402 235.02 65.5887 235.18C65.782 235.333 66.052 235.41 66.3987 235.41ZM70.0289 236V231.04H70.7889L70.8389 231.93C70.9989 231.617 71.2289 231.37 71.5289 231.19C71.8289 231.01 72.1689 230.92 72.5489 230.92C73.1355 230.92 73.6022 231.1 73.9489 231.46C74.3022 231.813 74.4789 232.36 74.4789 233.1V236H73.6389V233.19C73.6389 232.157 73.2122 231.64 72.3589 231.64C71.9322 231.64 71.5755 231.797 71.2889 232.11C71.0089 232.417 70.8689 232.857 70.8689 233.43V236H70.0289Z" fill="#74BBCB"/>
<path d="M115.463 236V229H119.723V229.69H116.303V232.15H119.213V232.83H116.303V236H115.463ZM122.77 236.12C122.296 236.12 121.876 236.013 121.51 235.8C121.143 235.58 120.853 235.277 120.64 234.89C120.433 234.503 120.33 234.047 120.33 233.52C120.33 233 120.433 232.547 120.64 232.16C120.846 231.767 121.133 231.463 121.5 231.25C121.873 231.03 122.303 230.92 122.79 230.92C123.27 230.92 123.683 231.03 124.03 231.25C124.383 231.463 124.653 231.747 124.84 232.1C125.026 232.453 125.12 232.833 125.12 233.24C125.12 233.313 125.116 233.387 125.11 233.46C125.11 233.533 125.11 233.617 125.11 233.71H121.16C121.18 234.09 121.266 234.407 121.42 234.66C121.58 234.907 121.776 235.093 122.01 235.22C122.25 235.347 122.503 235.41 122.77 235.41C123.116 235.41 123.406 235.33 123.64 235.17C123.873 235.01 124.043 234.793 124.15 234.52H124.98C124.846 234.98 124.59 235.363 124.21 235.67C123.836 235.97 123.356 236.12 122.77 236.12ZM122.77 231.63C122.37 231.63 122.013 231.753 121.7 232C121.393 232.24 121.216 232.593 121.17 233.06H124.29C124.27 232.613 124.116 232.263 123.83 232.01C123.543 231.757 123.19 231.63 122.77 231.63ZM128.883 236.12C128.476 236.12 128.113 236.037 127.793 235.87C127.48 235.703 127.24 235.47 127.073 235.17L126.993 236H126.233V228.8H127.073V231.86C127.233 231.62 127.46 231.403 127.753 231.21C128.053 231.017 128.433 230.92 128.893 230.92C129.386 230.92 129.816 231.033 130.183 231.26C130.55 231.487 130.833 231.797 131.033 232.19C131.24 232.583 131.343 233.03 131.343 233.53C131.343 234.03 131.24 234.477 131.033 234.87C130.833 235.257 130.546 235.563 130.173 235.79C129.806 236.01 129.376 236.12 128.883 236.12ZM128.793 235.39C129.126 235.39 129.42 235.313 129.673 235.16C129.926 235 130.126 234.78 130.273 234.5C130.42 234.22 130.493 233.893 130.493 233.52C130.493 233.147 130.42 232.82 130.273 232.54C130.126 232.26 129.926 232.043 129.673 231.89C129.42 231.73 129.126 231.65 128.793 231.65C128.46 231.65 128.166 231.73 127.913 231.89C127.66 232.043 127.46 232.26 127.313 232.54C127.166 232.82 127.093 233.147 127.093 233.52C127.093 233.893 127.166 234.22 127.313 234.5C127.46 234.78 127.66 235 127.913 235.16C128.166 235.313 128.46 235.39 128.793 235.39Z" fill="#74BBCB"/>
<path d="M171.531 236V229H172.511L175.031 233.88L177.531 229H178.521V236H177.681V230.5L175.341 235H174.711L172.371 230.51V236H171.531ZM181.598 236.12C181.184 236.12 180.841 236.05 180.568 235.91C180.294 235.77 180.091 235.583 179.958 235.35C179.824 235.117 179.758 234.863 179.758 234.59C179.758 234.083 179.951 233.693 180.338 233.42C180.724 233.147 181.251 233.01 181.918 233.01H183.258V232.95C183.258 232.517 183.144 232.19 182.918 231.97C182.691 231.743 182.388 231.63 182.008 231.63C181.681 231.63 181.398 231.713 181.158 231.88C180.924 232.04 180.778 232.277 180.718 232.59H179.858C179.891 232.23 180.011 231.927 180.218 231.68C180.431 231.433 180.694 231.247 181.008 231.12C181.321 230.987 181.654 230.92 182.008 230.92C182.701 230.92 183.221 231.107 183.568 231.48C183.921 231.847 184.098 232.337 184.098 232.95V236H183.348L183.298 235.11C183.158 235.39 182.951 235.63 182.678 235.83C182.411 236.023 182.051 236.12 181.598 236.12ZM181.728 235.41C182.048 235.41 182.321 235.327 182.548 235.16C182.781 234.993 182.958 234.777 183.078 234.51C183.198 234.243 183.258 233.963 183.258 233.67V233.66H181.988C181.494 233.66 181.144 233.747 180.938 233.92C180.738 234.087 180.638 234.297 180.638 234.55C180.638 234.81 180.731 235.02 180.918 235.18C181.111 235.333 181.381 235.41 181.728 235.41ZM185.358 236V231.04H186.118L186.188 231.99C186.341 231.663 186.575 231.403 186.888 231.21C187.201 231.017 187.588 230.92 188.048 230.92V231.8H187.818C187.525 231.8 187.255 231.853 187.008 231.96C186.761 232.06 186.565 232.233 186.418 232.48C186.271 232.727 186.198 233.067 186.198 233.5V236H185.358Z" fill="#74BBCB"/>
<path d="M227.842 236L230.422 229H231.312L233.882 236H232.992L232.352 234.2H229.372L228.722 236H227.842ZM229.622 233.52H232.102L230.862 230.06L229.622 233.52ZM234.873 238.2V231.04H235.633L235.713 231.86C235.873 231.62 236.099 231.403 236.393 231.21C236.693 231.017 237.073 230.92 237.533 230.92C238.026 230.92 238.456 231.033 238.823 231.26C239.189 231.487 239.473 231.797 239.673 232.19C239.879 232.583 239.983 233.03 239.983 233.53C239.983 234.03 239.879 234.477 239.673 234.87C239.473 235.257 239.186 235.563 238.813 235.79C238.446 236.01 238.016 236.12 237.523 236.12C237.116 236.12 236.753 236.037 236.433 235.87C236.119 235.703 235.879 235.47 235.713 235.17V238.2H234.873ZM237.433 235.39C237.766 235.39 238.059 235.313 238.313 235.16C238.566 235 238.766 234.78 238.913 234.5C239.059 234.22 239.133 233.893 239.133 233.52C239.133 233.147 239.059 232.82 238.913 232.54C238.766 232.26 238.566 232.043 238.313 231.89C238.059 231.73 237.766 231.65 237.433 231.65C237.099 231.65 236.806 231.73 236.553 231.89C236.299 232.043 236.099 232.26 235.953 232.54C235.806 232.82 235.733 233.147 235.733 233.52C235.733 233.893 235.806 234.22 235.953 234.5C236.099 234.78 236.299 235 236.553 235.16C236.806 235.313 237.099 235.39 237.433 235.39ZM241.152 236V231.04H241.912L241.982 231.99C242.135 231.663 242.369 231.403 242.682 231.21C242.995 231.017 243.382 230.92 243.842 230.92V231.8H243.612C243.319 231.8 243.049 231.853 242.802 231.96C242.555 232.06 242.359 232.233 242.212 232.48C242.065 232.727 241.992 233.067 241.992 233.5V236H241.152Z" fill="#74BBCB"/>
<path d="M283.187 236V229H284.167L286.687 233.88L289.187 229H290.177V236H289.337V230.5L286.997 235H286.367L284.027 230.51V236H283.187ZM293.254 236.12C292.841 236.12 292.497 236.05 292.224 235.91C291.951 235.77 291.747 235.583 291.614 235.35C291.481 235.117 291.414 234.863 291.414 234.59C291.414 234.083 291.607 233.693 291.994 233.42C292.381 233.147 292.907 233.01 293.574 233.01H294.914V232.95C294.914 232.517 294.801 232.19 294.574 231.97C294.347 231.743 294.044 231.63 293.664 231.63C293.337 231.63 293.054 231.713 292.814 231.88C292.581 232.04 292.434 232.277 292.374 232.59H291.514C291.547 232.23 291.667 231.927 291.874 231.68C292.087 231.433 292.351 231.247 292.664 231.12C292.977 230.987 293.311 230.92 293.664 230.92C294.357 230.92 294.877 231.107 295.224 231.48C295.577 231.847 295.754 232.337 295.754 232.95V236H295.004L294.954 235.11C294.814 235.39 294.607 235.63 294.334 235.83C294.067 236.023 293.707 236.12 293.254 236.12ZM293.384 235.41C293.704 235.41 293.977 235.327 294.204 235.16C294.437 234.993 294.614 234.777 294.734 234.51C294.854 234.243 294.914 233.963 294.914 233.67V233.66H293.644C293.151 233.66 292.801 233.747 292.594 233.92C292.394 234.087 292.294 234.297 292.294 234.55C292.294 234.81 292.387 235.02 292.574 235.18C292.767 235.333 293.037 235.41 293.384 235.41ZM297.408 238.2L298.638 235.52H298.348L296.378 231.04H297.288L298.928 234.9L300.668 231.04H301.538L298.288 238.2H297.408Z" fill="#74BBCB"/>
<path d="M342.446 236.12C341.812 236.12 341.316 235.943 340.956 235.59C340.596 235.237 340.416 234.747 340.416 234.12H341.266C341.266 234.473 341.352 234.77 341.526 235.01C341.699 235.25 342.002 235.37 342.436 235.37C342.856 235.37 343.146 235.253 343.306 235.02C343.472 234.787 343.556 234.497 343.556 234.15V229H344.396V234.15C344.396 234.77 344.222 235.253 343.876 235.6C343.536 235.947 343.059 236.12 342.446 236.12ZM347.636 236.12C347.049 236.12 346.582 235.943 346.236 235.59C345.889 235.23 345.716 234.68 345.716 233.94V231.04H346.556V233.85C346.556 234.883 346.979 235.4 347.826 235.4C348.259 235.4 348.616 235.247 348.896 234.94C349.182 234.627 349.326 234.183 349.326 233.61V231.04H350.166V236H349.406L349.346 235.11C349.192 235.423 348.962 235.67 348.656 235.85C348.356 236.03 348.016 236.12 347.636 236.12ZM351.548 236V231.04H352.308L352.358 231.93C352.518 231.617 352.748 231.37 353.048 231.19C353.348 231.01 353.688 230.92 354.068 230.92C354.655 230.92 355.122 231.1 355.468 231.46C355.822 231.813 355.998 232.36 355.998 233.1V236H355.158V233.19C355.158 232.157 354.732 231.64 353.878 231.64C353.452 231.64 353.095 231.797 352.808 232.11C352.528 232.417 352.388 232.857 352.388 233.43V236H351.548Z" fill="#74BBCB"/>
<path d="M400.472 236.12C399.839 236.12 399.342 235.943 398.982 235.59C398.622 235.237 398.442 234.747 398.442 234.12H399.292C399.292 234.473 399.379 234.77 399.552 235.01C399.725 235.25 400.029 235.37 400.462 235.37C400.882 235.37 401.172 235.253 401.332 235.02C401.499 234.787 401.582 234.497 401.582 234.15V229H402.422V234.15C402.422 234.77 402.249 235.253 401.902 235.6C401.562 235.947 401.085 236.12 400.472 236.12ZM405.662 236.12C405.075 236.12 404.609 235.943 404.262 235.59C403.915 235.23 403.742 234.68 403.742 233.94V231.04H404.582V233.85C404.582 234.883 405.005 235.4 405.852 235.4C406.285 235.4 406.642 235.247 406.922 234.94C407.209 234.627 407.352 234.183 407.352 233.61V231.04H408.192V236H407.432L407.372 235.11C407.219 235.423 406.989 235.67 406.682 235.85C406.382 236.03 406.042 236.12 405.662 236.12ZM409.575 236V228.8H410.415V236H409.575Z" fill="#74BBCB"/>
<path d="M452.322 236L454.902 229H455.792L458.362 236H457.472L456.832 234.2H453.852L453.202 236H452.322ZM454.102 233.52H456.582L455.342 230.06L454.102 233.52ZM461.056 236.12C460.469 236.12 460.002 235.943 459.656 235.59C459.309 235.23 459.136 234.68 459.136 233.94V231.04H459.976V233.85C459.976 234.883 460.399 235.4 461.246 235.4C461.679 235.4 462.036 235.247 462.316 234.94C462.602 234.627 462.746 234.183 462.746 233.61V231.04H463.586V236H462.826L462.766 235.11C462.612 235.423 462.382 235.67 462.076 235.85C461.776 236.03 461.436 236.12 461.056 236.12ZM466.928 234.44C466.648 234.44 466.392 234.403 466.158 234.33L465.658 234.8C465.732 234.853 465.822 234.9 465.928 234.94C466.042 234.973 466.202 235.007 466.408 235.04C466.615 235.067 466.905 235.097 467.278 235.13C467.945 235.177 468.422 235.33 468.708 235.59C468.995 235.85 469.138 236.19 469.138 236.61C469.138 236.897 469.058 237.17 468.898 237.43C468.745 237.69 468.505 237.903 468.178 238.07C467.858 238.237 467.445 238.32 466.938 238.32C466.492 238.32 466.095 238.26 465.748 238.14C465.402 238.027 465.132 237.85 464.938 237.61C464.745 237.377 464.648 237.08 464.648 236.72C464.648 236.533 464.698 236.33 464.798 236.11C464.898 235.897 465.085 235.693 465.358 235.5C465.212 235.44 465.085 235.377 464.978 235.31C464.878 235.237 464.785 235.157 464.698 235.07V234.84L465.548 234C465.155 233.667 464.958 233.227 464.958 232.68C464.958 232.353 465.035 232.057 465.188 231.79C465.342 231.523 465.565 231.313 465.858 231.16C466.152 231 466.508 230.92 466.928 230.92C467.215 230.92 467.475 230.96 467.708 231.04H469.538V231.67L468.608 231.71C468.802 231.99 468.898 232.313 468.898 232.68C468.898 233.007 468.818 233.303 468.658 233.57C468.505 233.837 468.282 234.05 467.988 234.21C467.702 234.363 467.348 234.44 466.928 234.44ZM466.928 233.75C467.282 233.75 467.562 233.66 467.768 233.48C467.982 233.293 468.088 233.027 468.088 232.68C468.088 232.34 467.982 232.08 467.768 231.9C467.562 231.713 467.282 231.62 466.928 231.62C466.568 231.62 466.282 231.713 466.068 231.9C465.862 232.08 465.758 232.34 465.758 232.68C465.758 233.027 465.862 233.293 466.068 233.48C466.282 233.66 466.568 233.75 466.928 233.75ZM465.468 236.64C465.468 236.973 465.608 237.22 465.888 237.38C466.168 237.547 466.518 237.63 466.938 237.63C467.352 237.63 467.682 237.54 467.928 237.36C468.182 237.18 468.308 236.94 468.308 236.64C468.308 236.427 468.222 236.24 468.048 236.08C467.875 235.927 467.555 235.837 467.088 235.81C466.722 235.783 466.405 235.75 466.138 235.71C465.865 235.857 465.685 236.013 465.598 236.18C465.512 236.353 465.468 236.507 465.468 236.64Z" fill="#74BBCB"/>
<path d="M511.275 236.12C510.761 236.12 510.315 236.027 509.935 235.84C509.555 235.653 509.261 235.393 509.055 235.06C508.848 234.727 508.745 234.34 508.745 233.9H509.625C509.625 234.173 509.688 234.427 509.815 234.66C509.941 234.887 510.125 235.07 510.365 235.21C510.611 235.343 510.915 235.41 511.275 235.41C511.748 235.41 512.115 235.297 512.375 235.07C512.635 234.843 512.765 234.56 512.765 234.22C512.765 233.94 512.705 233.717 512.585 233.55C512.465 233.377 512.301 233.237 512.095 233.13C511.895 233.023 511.661 232.93 511.395 232.85C511.135 232.77 510.861 232.68 510.575 232.58C510.035 232.393 509.635 232.163 509.375 231.89C509.115 231.61 508.985 231.247 508.985 230.8C508.978 230.427 509.065 230.097 509.245 229.81C509.425 229.517 509.678 229.29 510.005 229.13C510.338 228.963 510.731 228.88 511.185 228.88C511.631 228.88 512.018 228.963 512.345 229.13C512.678 229.297 512.935 229.527 513.115 229.82C513.301 230.113 513.398 230.447 513.405 230.82H512.525C512.525 230.627 512.475 230.437 512.375 230.25C512.275 230.057 512.121 229.9 511.915 229.78C511.715 229.66 511.461 229.6 511.155 229.6C510.775 229.593 510.461 229.69 510.215 229.89C509.975 230.09 509.855 230.367 509.855 230.72C509.855 231.02 509.938 231.25 510.105 231.41C510.278 231.57 510.518 231.703 510.825 231.81C511.131 231.91 511.485 232.027 511.885 232.16C512.218 232.28 512.518 232.42 512.785 232.58C513.051 232.74 513.258 232.947 513.405 233.2C513.558 233.453 513.635 233.777 513.635 234.17C513.635 234.503 513.548 234.82 513.375 235.12C513.201 235.413 512.938 235.653 512.585 235.84C512.238 236.027 511.801 236.12 511.275 236.12ZM517.006 236.12C516.533 236.12 516.113 236.013 515.746 235.8C515.379 235.58 515.089 235.277 514.876 234.89C514.669 234.503 514.566 234.047 514.566 233.52C514.566 233 514.669 232.547 514.876 232.16C515.083 231.767 515.369 231.463 515.736 231.25C516.109 231.03 516.539 230.92 517.026 230.92C517.506 230.92 517.919 231.03 518.266 231.25C518.619 231.463 518.889 231.747 519.076 232.1C519.263 232.453 519.356 232.833 519.356 233.24C519.356 233.313 519.353 233.387 519.346 233.46C519.346 233.533 519.346 233.617 519.346 233.71H515.396C515.416 234.09 515.503 234.407 515.656 234.66C515.816 234.907 516.013 235.093 516.246 235.22C516.486 235.347 516.739 235.41 517.006 235.41C517.353 235.41 517.643 235.33 517.876 235.17C518.109 235.01 518.279 234.793 518.386 234.52H519.216C519.083 234.98 518.826 235.363 518.446 235.67C518.073 235.97 517.593 236.12 517.006 236.12ZM517.006 231.63C516.606 231.63 516.249 231.753 515.936 232C515.629 232.24 515.453 232.593 515.406 233.06H518.526C518.506 232.613 518.353 232.263 518.066 232.01C517.779 231.757 517.426 231.63 517.006 231.63ZM520.469 238.2V231.04H521.229L521.309 231.86C521.469 231.62 521.696 231.403 521.989 231.21C522.289 231.017 522.669 230.92 523.129 230.92C523.623 230.92 524.053 231.033 524.419 231.26C524.786 231.487 525.069 231.797 525.269 232.19C525.476 232.583 525.579 233.03 525.579 233.53C525.579 234.03 525.476 234.477 525.269 234.87C525.069 235.257 524.783 235.563 524.409 235.79C524.043 236.01 523.613 236.12 523.119 236.12C522.713 236.12 522.349 236.037 522.029 235.87C521.716 235.703 521.476 235.47 521.309 235.17V238.2H520.469ZM523.029 235.39C523.363 235.39 523.656 235.313 523.909 235.16C524.163 235 524.363 234.78 524.509 234.5C524.656 234.22 524.729 233.893 524.729 233.52C524.729 233.147 524.656 232.82 524.509 232.54C524.363 232.26 524.163 232.043 523.909 231.89C523.656 231.73 523.363 231.65 523.029 231.65C522.696 231.65 522.403 231.73 522.149 231.89C521.896 232.043 521.696 232.26 521.549 232.54C521.403 232.82 521.329 233.147 521.329 233.52C521.329 233.893 521.403 234.22 521.549 234.5C521.696 234.78 521.896 235 522.149 235.16C522.403 235.313 522.696 235.39 523.029 235.39Z" fill="#74BBCB"/>
<path d="M568.737 236.12C568.051 236.12 567.447 235.97 566.927 235.67C566.414 235.363 566.011 234.937 565.717 234.39C565.431 233.843 565.287 233.213 565.287 232.5C565.287 231.787 565.431 231.16 565.717 230.62C566.011 230.073 566.414 229.647 566.927 229.34C567.447 229.033 568.051 228.88 568.737 228.88C569.431 228.88 570.034 229.033 570.547 229.34C571.067 229.647 571.471 230.073 571.757 230.62C572.044 231.16 572.187 231.787 572.187 232.5C572.187 233.213 572.044 233.843 571.757 234.39C571.471 234.937 571.067 235.363 570.547 235.67C570.034 235.97 569.431 236.12 568.737 236.12ZM568.737 235.38C569.251 235.38 569.701 235.267 570.087 235.04C570.481 234.807 570.784 234.477 570.997 234.05C571.217 233.617 571.327 233.1 571.327 232.5C571.327 231.9 571.217 231.387 570.997 230.96C570.784 230.533 570.481 230.207 570.087 229.98C569.701 229.747 569.251 229.63 568.737 229.63C568.224 229.63 567.771 229.747 567.377 229.98C566.991 230.207 566.687 230.533 566.467 230.96C566.254 231.387 566.147 231.9 566.147 232.5C566.147 233.1 566.254 233.617 566.467 234.05C566.687 234.477 566.991 234.807 567.377 235.04C567.771 235.267 568.224 235.38 568.737 235.38ZM575.629 236.12C575.156 236.12 574.729 236.013 574.349 235.8C573.976 235.58 573.679 235.277 573.459 234.89C573.246 234.497 573.139 234.04 573.139 233.52C573.139 233 573.246 232.547 573.459 232.16C573.679 231.767 573.976 231.463 574.349 231.25C574.729 231.03 575.156 230.92 575.629 230.92C576.216 230.92 576.709 231.073 577.109 231.38C577.516 231.687 577.773 232.097 577.879 232.61H577.019C576.953 232.303 576.789 232.067 576.529 231.9C576.269 231.727 575.966 231.64 575.619 231.64C575.339 231.64 575.076 231.71 574.829 231.85C574.583 231.99 574.383 232.2 574.229 232.48C574.076 232.76 573.999 233.107 573.999 233.52C573.999 233.933 574.076 234.28 574.229 234.56C574.383 234.84 574.583 235.053 574.829 235.2C575.076 235.34 575.339 235.41 575.619 235.41C575.966 235.41 576.269 235.327 576.529 235.16C576.789 234.987 576.953 234.743 577.019 234.43H577.879C577.779 234.93 577.526 235.337 577.119 235.65C576.713 235.963 576.216 236.12 575.629 236.12ZM580.876 236C580.422 236 580.066 235.89 579.806 235.67C579.546 235.45 579.416 235.053 579.416 234.48V231.75H578.556V231.04H579.416L579.526 229.85H580.256V231.04H581.716V231.75H580.256V234.48C580.256 234.793 580.319 235.007 580.446 235.12C580.572 235.227 580.796 235.28 581.116 235.28H581.636V236H580.876Z" fill="#74BBCB"/>
<path d="M621.581 236V229H622.421L626.151 234.61V229H626.991V236H626.151L622.421 230.39V236H621.581ZM630.685 236.12C630.219 236.12 629.799 236.013 629.425 235.8C629.052 235.587 628.755 235.287 628.535 234.9C628.322 234.507 628.215 234.047 628.215 233.52C628.215 232.993 628.325 232.537 628.545 232.15C628.765 231.757 629.062 231.453 629.435 231.24C629.815 231.027 630.239 230.92 630.705 230.92C631.172 230.92 631.592 231.027 631.965 231.24C632.339 231.453 632.632 231.757 632.845 232.15C633.065 232.537 633.175 232.993 633.175 233.52C633.175 234.047 633.065 234.507 632.845 234.9C632.625 235.287 632.325 235.587 631.945 235.8C631.572 236.013 631.152 236.12 630.685 236.12ZM630.685 235.4C630.972 235.4 631.239 235.33 631.485 235.19C631.732 235.05 631.932 234.84 632.085 234.56C632.239 234.28 632.315 233.933 632.315 233.52C632.315 233.107 632.239 232.76 632.085 232.48C631.939 232.2 631.742 231.99 631.495 231.85C631.249 231.71 630.985 231.64 630.705 231.64C630.419 231.64 630.152 231.71 629.905 231.85C629.659 231.99 629.459 232.2 629.305 232.48C629.152 232.76 629.075 233.107 629.075 233.52C629.075 233.933 629.152 234.28 629.305 234.56C629.459 234.84 629.655 235.05 629.895 235.19C630.142 235.33 630.405 235.4 630.685 235.4ZM635.519 236L633.639 231.04H634.519L636.009 235.19L637.509 231.04H638.369L636.489 236H635.519Z" fill="#74BBCB"/>
<path d="M677.56 236V229H679.71C680.944 229 681.85 229.313 682.43 229.94C683.017 230.567 683.31 231.427 683.31 232.52C683.31 233.593 683.017 234.443 682.43 235.07C681.85 235.69 680.944 236 679.71 236H677.56ZM678.4 235.3H679.69C680.37 235.3 680.91 235.19 681.31 234.97C681.717 234.743 682.007 234.423 682.18 234.01C682.354 233.59 682.44 233.093 682.44 232.52C682.44 231.933 682.354 231.43 682.18 231.01C682.007 230.59 681.717 230.267 681.31 230.04C680.91 229.813 680.37 229.7 679.69 229.7H678.4V235.3ZM686.703 236.12C686.23 236.12 685.81 236.013 685.443 235.8C685.077 235.58 684.787 235.277 684.573 234.89C684.367 234.503 684.263 234.047 684.263 233.52C684.263 233 684.367 232.547 684.573 232.16C684.78 231.767 685.067 231.463 685.433 231.25C685.807 231.03 686.237 230.92 686.723 230.92C687.203 230.92 687.617 231.03 687.963 231.25C688.317 231.463 688.587 231.747 688.773 232.1C688.96 232.453 689.053 232.833 689.053 233.24C689.053 233.313 689.05 233.387 689.043 233.46C689.043 233.533 689.043 233.617 689.043 233.71H685.093C685.113 234.09 685.2 234.407 685.353 234.66C685.513 234.907 685.71 235.093 685.943 235.22C686.183 235.347 686.437 235.41 686.703 235.41C687.05 235.41 687.34 235.33 687.573 235.17C687.807 235.01 687.977 234.793 688.083 234.52H688.913C688.78 234.98 688.523 235.363 688.143 235.67C687.77 235.97 687.29 236.12 686.703 236.12ZM686.703 231.63C686.303 231.63 685.947 231.753 685.633 232C685.327 232.24 685.15 232.593 685.103 233.06H688.223C688.203 232.613 688.05 232.263 687.763 232.01C687.477 231.757 687.123 231.63 686.703 231.63ZM692.447 236.12C691.973 236.12 691.547 236.013 691.167 235.8C690.793 235.58 690.497 235.277 690.277 234.89C690.063 234.497 689.957 234.04 689.957 233.52C689.957 233 690.063 232.547 690.277 232.16C690.497 231.767 690.793 231.463 691.167 231.25C691.547 231.03 691.973 230.92 692.447 230.92C693.033 230.92 693.527 231.073 693.927 231.38C694.333 231.687 694.59 232.097 694.697 232.61H693.837C693.77 232.303 693.607 232.067 693.347 231.9C693.087 231.727 692.783 231.64 692.437 231.64C692.157 231.64 691.893 231.71 691.647 231.85C691.4 231.99 691.2 232.2 691.047 232.48C690.893 232.76 690.817 233.107 690.817 233.52C690.817 233.933 690.893 234.28 691.047 234.56C691.2 234.84 691.4 235.053 691.647 235.2C691.893 235.34 692.157 235.41 692.437 235.41C692.783 235.41 693.087 235.327 693.347 235.16C693.607 234.987 693.77 234.743 693.837 234.43H694.697C694.597 234.93 694.343 235.337 693.937 235.65C693.53 235.963 693.033 236.12 692.447 236.12Z" fill="#74BBCB"/>
<path d="M46 161.5L106.5 135.5L170 85.5L266 59L358.5 105.5L439.5 122L473 59L517.5 36L590 59L700.5 1.5" stroke="#1323E8"/>
<circle cx="41.5" cy="164" r="5" fill="#1D1F35" stroke="#1323E8"/>
<circle cx="110.5" cy="134" r="5" fill="#1D1F35" stroke="#1323E8"/>
<circle cx="169.5" cy="87" r="5" fill="#1D1F35" stroke="#1323E8"/>
<circle cx="265.5" cy="59" r="5" fill="#1D1F35" stroke="#1323E8"/>
<circle cx="358.5" cy="104" r="5" fill="#1D1F35" stroke="#1323E8"/>
<circle cx="437.5" cy="122" r="5" fill="#1D1F35" stroke="#1323E8"/>
<circle cx="517.5" cy="37.5" r="5" fill="#1D1F35" stroke="#1323E8"/>
<circle cx="473.5" cy="60" r="5" fill="#1D1F35" stroke="#1323E8"/>
<circle cx="590.5" cy="59.5" r="5" fill="#1D1F35" stroke="#1323E8"/>
<path d="M42 87.8037L171.474 145L284.764 64.2523L472.232 7.72897L554.503 43.3925L686 1" stroke="#A800DE" stroke-dasharray="6 6"/>
<path d="M175.093 144.495L42 87.4996V182H704V1L568.827 43.244L484.258 7.7054L291.55 64.0307L175.093 144.495Z" fill="url(#paint0_linear_3_564)"/>
<defs>
<linearGradient id="paint0_linear_3_564" x1="387.562" y1="15.6757" x2="388.089" y2="189.61" gradientUnits="userSpaceOnUse">
<stop offset="0.045195" stop-color="#CA2FFC" stop-opacity="0.19"/>
<stop offset="1" stop-color="#121213" stop-opacity="0.12"/>
</linearGradient>
</defs>
</svg>
