<svg width="24" height="24" viewBox="0 0 24 24" fill="none" xmlns="http://www.w3.org/2000/svg">
<path d="M23 12C23 11.2767 22.7103 10.583 22.1945 10.0715C21.6788 9.56006 20.9793 9.27273 20.25 9.27273H15.6667C15.6667 10.2372 15.2804 11.1621 14.5927 11.844C13.9051 12.526 12.9725 12.9091 12 12.9091C11.0275 12.9091 10.0949 12.526 9.40727 11.844C8.71964 11.1621 8.33333 10.2372 8.33333 9.27273H3.75C3.02065 9.27273 2.32118 9.56006 1.80546 10.0715C1.28973 10.583 1 11.2767 1 12M23 12V19.2727C23 19.996 22.7103 20.6897 22.1945 21.2012C21.6788 21.7127 20.9793 22 20.25 22H3.75C3.02065 22 2.32118 21.7127 1.80546 21.2012C1.28973 20.6897 1 19.996 1 19.2727V12M23 12V8.36364M1 12V8.36364M23 8.36364C23 7.64032 22.7103 6.94663 22.1945 6.43516C21.6788 5.9237 20.9793 5.63636 20.25 5.63636H3.75C3.02065 5.63636 2.32118 5.9237 1.80546 6.43516C1.28973 6.94663 1 7.64032 1 8.36364M23 8.36364V4.72727C23 4.00396 22.7103 3.31026 22.1945 2.7988C21.6788 2.28734 20.9793 2 20.25 2H3.75C3.02065 2 2.32118 2.28734 1.80546 2.7988C1.28973 3.31026 1 4.00396 1 4.72727V8.36364" stroke="#1D1F35" stroke-width="1.5" stroke-linecap="round" stroke-linejoin="round"/>
</svg>
