<svg width="24" height="24" viewBox="0 0 24 24" fill="none" xmlns="http://www.w3.org/2000/svg">
<path fill-rule="evenodd" clip-rule="evenodd" d="M18.9436 17.1384L18.8385 17.2773L20.6734 19.1128C20.8811 19.3206 20.8811 19.6574 20.6733 19.8653L18.8938 21.6449C18.6859 21.8527 18.349 21.8527 18.1412 21.6449L16.1169 19.6206L15.9854 19.6927C15.8258 19.7802 15.6634 19.8625 15.4988 19.9406L15.4675 19.9554L14.9788 20.4441C14.7959 20.6271 14.5049 20.654 14.2904 20.4983L14.2108 20.4406L14.1165 20.4684C11.3518 21.2823 8.45345 20.7461 6.1734 19.1515C-1.25783 13.954 2.42661 2.20078 11.5115 2.20078C19.1922 2.20078 23.5696 11.025 18.9436 17.1384ZM11.5115 3.26503C3.4669 3.26503 0.193205 13.6701 6.7834 18.2794C8.75307 19.6569 11.2621 20.1566 13.6899 19.4834L13.881 19.4304L13.524 18.0984L13.3298 18.1519C11.4039 18.6817 9.34404 18.344 7.67585 17.2203C2.05638 13.4355 4.76002 4.6412 11.5115 4.6412C16.5313 4.6412 19.8648 9.87818 17.7467 14.418L17.6459 14.634L18.999 14.9966L19.0681 14.8394C21.4673 9.37958 17.4409 3.26503 11.5115 3.26503ZM12.0436 7.24498V7.74042L12.1887 7.78188C13.0522 8.02882 13.6857 8.82484 13.6857 9.76545C13.6857 10.0593 13.4474 10.2976 13.1536 10.2976C12.8597 10.2976 12.6214 10.0593 12.6214 9.76545C12.6214 9.42148 12.4787 9.15617 12.255 8.98622C12.0372 8.8208 11.7575 8.75624 11.4901 8.77393C10.96 8.809 10.3882 9.18542 10.4018 9.89825C10.4133 10.4991 10.9105 10.9864 11.5115 10.9864C12.7809 10.9864 13.8136 12.1016 13.6723 13.3938L13.6537 13.5643L16.589 14.3508L16.6634 14.2091C18.6826 10.3572 15.8729 5.70549 11.5115 5.70549C5.79863 5.70549 3.51956 13.1378 8.27029 16.3376C9.7117 17.3085 11.426 17.5842 13.0583 17.1247L13.2484 17.0711L12.6902 14.988L12.4709 15.0978C12.3769 15.1448 12.2796 15.1852 12.1799 15.2187L12.0436 15.2645V15.792C12.0436 16.0859 11.8053 16.3242 11.5114 16.3242C11.2175 16.3242 10.9793 16.0859 10.9793 15.792V15.2966L10.8343 15.2551C9.97073 15.0082 9.33721 14.2122 9.33721 13.2716C9.33721 12.9777 9.57548 12.7394 9.86935 12.7394C10.1632 12.7394 10.4015 12.9777 10.4015 13.2716C10.4015 13.7703 10.7282 14.1038 11.1208 14.2224C11.5076 14.3393 11.9768 14.2557 12.3039 13.9223C13.0073 13.2053 12.4606 12.0506 11.5115 12.0506C9.08616 12.0506 8.46834 8.61576 10.843 7.81833L10.9794 7.77255V7.24498C10.9794 6.9511 11.2176 6.71284 11.5115 6.71284C11.8054 6.71284 12.0436 6.9511 12.0436 7.24498ZM16.3367 18.3347L18.5176 20.516L19.5447 19.489L17.3633 17.3073C17.1558 17.0999 17.1551 16.763 17.3632 16.5548L18.0685 15.8493L13.7099 14.6813L14.8781 19.0398L15.5837 18.3342C15.7916 18.1263 16.129 18.1266 16.3367 18.3347Z" fill="#1D1F35"/>
</svg>
