<svg width="24" height="24" viewBox="0 0 24 24" fill="none" xmlns="http://www.w3.org/2000/svg">
<path d="M12.712 21.8252L12.5267 19.6367L12.4686 18.95H11.7794H11.5C9.04685 18.95 6.99264 18.1165 5.29227 16.443C3.59238 14.7699 2.75 12.7537 2.75 10.35C2.75 7.94626 3.59238 5.93008 5.29227 4.25703C6.99264 2.58351 9.04685 1.75 11.5 1.75C12.7284 1.75 13.8625 1.97495 14.9102 2.41879C15.9712 2.86827 16.8973 3.48512 17.6941 4.27001C18.4911 5.05509 19.1164 5.96553 19.5719 7.00638C20.0213 8.03335 20.2493 9.14522 20.25 10.3504C20.25 11.6406 20.0363 12.8742 19.6104 14.0557C19.1787 15.2533 18.5882 16.363 17.8379 17.3866L17.8375 17.3872C17.0864 18.414 16.1914 19.348 15.1497 20.1889C14.3872 20.8044 13.5749 21.3498 12.712 21.8252Z" stroke="#1D1F35" stroke-width="1.5"/>
<path d="M9 8.66667C9 7.19391 10.3431 6 12 6C13.6569 6 15 7.19506 15 8.66667C15 10.0201 13.4854 11.0209 12.6086 11.4868C12.2481 11.6784 12 12.0452 12 12.4535V14" stroke="#1D1F35" stroke-width="1.5"/>
<path d="M12 15V16.5" stroke="#1D1F35" stroke-width="1.5"/>
</svg>
