<svg width="79" height="61" viewBox="0 0 79 61" fill="none" xmlns="http://www.w3.org/2000/svg">
<path d="M4.13402 23.5881L0.085803 40.149C0.028807 40.3822 0 40.6213 0 40.8613V57.5C0 59.1569 1.34314 60.5 3 60.5H76C77.6569 60.5 79 59.1569 79 57.5V6.82012C79 6.28322 78.8559 5.75617 78.5828 5.29393L76.4424 1.67178C75.0481 -0.687838 71.4804 -0.096139 70.9225 2.58726L64.334 34.2744C63.7054 37.2978 59.4697 37.5136 58.537 34.5698L48.954 4.32353C48.0609 1.50464 44.0591 1.54146 43.218 4.3763L35.4304 30.6234C34.5767 33.5008 30.4943 33.4801 29.6698 30.5942L26.1974 18.441C25.3841 15.5945 21.3767 15.5214 20.4602 18.3364L18.1289 25.497C17.4095 27.7067 14.5593 28.2947 13.0241 26.5501L9.30035 22.3186C7.69816 20.4979 4.7099 21.2322 4.13402 23.5881Z" fill="url(#paint0_linear_3_681)"/>
<defs>
<linearGradient id="paint0_linear_3_681" x1="39.5" y1="-5" x2="39.5" y2="60.5" gradientUnits="userSpaceOnUse">
<stop stop-color="#4E5CFF"/>
<stop offset="1" stop-color="white" stop-opacity="0"/>
</linearGradient>
</defs>
</svg>
